<svg xmlns="http://www.w3.org/2000/svg" viewBox="0 0 22.38 22.87"><defs><style>.cls-1{fill:#666;}</style></defs><g id="Layer_2" data-name="Layer 2"><g id="Layer_1-2" data-name="Layer 1"><path class="cls-1" d="M16.08,12.28a5.29,5.29,0,0,0-4.24,2.05L8,12.26A3.7,3.7,0,0,0,8,10.2l7.23-3.62a4,4,0,0,0,3.12,1.51h0a4,4,0,1,0-4.05-4,4.06,4.06,0,0,0,.13,1L7.19,8.64a4,4,0,1,0-.61,5.68,3.85,3.85,0,0,0,.55-.52L11,15.87a4.9,4.9,0,0,0-.29,1.65,5.29,5.29,0,1,0,5.35-5.24ZM18.52,1.2a2.67,2.67,0,1,1-2.46,3A.78.78,0,0,1,16,4,2.66,2.66,0,0,1,18.52,1.2Zm-12.15,10a1.92,1.92,0,0,1,0,.22,2.25,2.25,0,1,1,0-.39c0,.06,0,.11,0,.16ZM16,21a3.51,3.51,0,1,1,3.48-3.53A3.5,3.5,0,0,1,16,21Z"/></g></g></svg>