<svg xmlns="http://www.w3.org/2000/svg" viewBox="0 0 24 22.08"><g id="Layer_2" data-name="Layer 2"><g id="Layer_1-2" data-name="Layer 1"><path d="M17.36,1.4A5.08,5.08,0,0,1,21.05,3a5.6,5.6,0,0,1,0,7.74l-.67.7L12,20.07,3.62,11.42,3,10.72A5.6,5.6,0,0,1,3,3a5.09,5.09,0,0,1,7.37,0l.67.69a1.4,1.4,0,0,0,2,0L13.68,3A5.08,5.08,0,0,1,17.36,1.4m0-1.4a6.51,6.51,0,0,0-4.69,2L12,2.7,11.33,2A6.49,6.49,0,0,0,1.94,2a7,7,0,0,0,0,9.69l.67.69L12,22.08l9.39-9.69.67-.69a7,7,0,0,0,0-9.69A6.51,6.51,0,0,0,17.36,0Z"/></g></g></svg>