<svg xmlns="http://www.w3.org/2000/svg" viewBox="0 0 23 24.67"><defs><style>.cls-1{fill:none;stroke:#000;stroke-miterlimit:10;}</style></defs><g id="Layer_2" data-name="Layer 2"><g id="Layer_1-2" data-name="Layer 1"><path id="ic_gift" data-name="ic gift" class="cls-1" d="M6.28,12.12,5.41,11,8.49,8.57H1.9v14.2h8.9V8.57h-.07ZM17.6,11l-.87,1.09L12.28,8.57H12.2v14.2h8.9V8.57H14.52Zm.18-3.86a3.94,3.94,0,0,0,1-2.67A4,4,0,0,0,11.5,2.27,4,4,0,0,0,4.18,4.5a3.94,3.94,0,0,0,1,2.67H.5v17h22v-17ZM8.18,1.9a2.59,2.59,0,0,1,2.6,2.6V7.1H8.18a2.6,2.6,0,0,1,0-5.2ZM10.8,22.77H1.9V8.57H8.49L5.41,11l.88,1.09,4.44-3.55h.07ZM12.22,4.5a2.6,2.6,0,1,1,2.6,2.6h-2.6ZM21.1,22.77H12.2V8.57h.08l4.45,3.55L17.6,11,14.52,8.57H21.1Z"/></g></g></svg>